<?xml version="1.0" encoding="UTF-8" standalone="no"?>
<!-- Created with Inkscape (http://www.inkscape.org/) -->

<svg
   xmlns:dc="http://purl.org/dc/elements/1.1/"
   xmlns:cc="http://creativecommons.org/ns#"
   xmlns:rdf="http://www.w3.org/1999/02/22-rdf-syntax-ns#"
   xmlns:svg="http://www.w3.org/2000/svg"
   xmlns="http://www.w3.org/2000/svg"
   xmlns:sodipodi="http://sodipodi.sourceforge.net/DTD/sodipodi-0.dtd"
   xmlns:inkscape="http://www.inkscape.org/namespaces/inkscape"
   id="svg5584"
   version="1.1"
   inkscape:version="0.91 r"
   xml:space="preserve"
   width="850.46875"
   height="208.63028"
   viewBox="0 0 850.46875 208.63028"
   sodipodi:docname="bbc_vertex_reconstruction.svg"><metadata
     id="metadata5590"><rdf:RDF><cc:Work
         rdf:about=""><dc:format>image/svg+xml</dc:format><dc:type
           rdf:resource="http://purl.org/dc/dcmitype/StillImage" /><dc:title></dc:title></cc:Work></rdf:RDF></metadata><defs
     id="defs5588" /><sodipodi:namedview
     pagecolor="#ffffff"
     bordercolor="#666666"
     borderopacity="1"
     objecttolerance="10"
     gridtolerance="10"
     guidetolerance="10"
     inkscape:pageopacity="0"
     inkscape:pageshadow="2"
     inkscape:window-width="1920"
     inkscape:window-height="1028"
     id="namedview5586"
     showgrid="false"
     fit-margin-top="0"
     fit-margin-left="0"
     fit-margin-right="0"
     fit-margin-bottom="0"
     inkscape:zoom="0.91138207"
     inkscape:cx="376.94264"
     inkscape:cy="74.752388"
     inkscape:window-x="1050"
     inkscape:window-y="231"
     inkscape:window-maximized="1"
     inkscape:current-layer="g5592" /><g
     id="g5592"
     inkscape:groupmode="layer"
     inkscape:label="focus_bbc"
     transform="matrix(1.25,0,0,-1.25,-24.84375,566.78545)"><text
       transform="matrix(1,0,0,-1,583.42,440.86)"
       style="font-variant:normal;font-weight:bold;font-size:18px;font-family:Arial;-inkscape-font-specification:'Arial Bold';writing-mode:lr-tb;fill:#000000;fill-opacity:1;fill-rule:nonzero;stroke:none"
       id="text5792"><tspan
         x="0 12.96 25.92 38.880001"
         y="0"
         sodipodi:role="line"
         id="tspan5794">BBC </tspan></text>
<text
       transform="matrix(1,0,0,-1,578.86,419.26)"
       style="font-variant:normal;font-weight:bold;font-size:18px;font-family:Arial;-inkscape-font-specification:'Arial Bold';writing-mode:lr-tb;fill:#000000;fill-opacity:1;fill-rule:nonzero;stroke:none"
       id="text5796"><tspan
         x="0 12.996 23.993999 30.996 36.990002"
         y="0"
         sodipodi:role="line"
         id="tspan5798">North</tspan></text>
<text
       transform="matrix(1,0,0,-1,97.848,440.86)"
       style="font-variant:normal;font-weight:bold;font-size:18px;font-family:Arial;-inkscape-font-specification:'Arial Bold';writing-mode:lr-tb;fill:#000000;fill-opacity:1;fill-rule:nonzero;stroke:none"
       id="text5800"><tspan
         x="0 12.96 25.92 38.880001"
         y="0"
         sodipodi:role="line"
         id="tspan5802">BBC </tspan></text>
<text
       transform="matrix(1,0,0,-1,91.728,419.26)"
       style="font-variant:normal;font-weight:bold;font-size:18px;font-family:Arial;-inkscape-font-specification:'Arial Bold';writing-mode:lr-tb;fill:#000000;fill-opacity:1;fill-rule:nonzero;stroke:none"
       id="text5804"><tspan
         x="0 12.006 23.004 34.056 40.049999"
         y="0"
         sodipodi:role="line"
         id="tspan5806">South</tspan></text>
<path
       d="m 19.875,369.75 680.375,0"
       style="fill:none;stroke:#000000;stroke-width:1.5;stroke-linecap:butt;stroke-linejoin:round;stroke-miterlimit:10;stroke-dasharray:none;stroke-opacity:1"
       id="path5808"
       inkscape:connector-curvature="0" /><path
       d="m 101.38,320.25 31.875,0 0,95.625 -31.875,0 0,-95.625 z"
       style="fill:#bbe0e3;fill-opacity:1;fill-rule:evenodd;stroke:none"
       id="path5810"
       inkscape:connector-curvature="0" /><path
       d="m 101.38,320.25 31.875,0 0,95.625 -31.875,0 0,-95.625 z"
       style="fill:none;stroke:#000000;stroke-width:1.5;stroke-linecap:butt;stroke-linejoin:miter;stroke-miterlimit:8;stroke-dasharray:none;stroke-opacity:1"
       id="path5812"
       inkscape:connector-curvature="0" /><path
       d="m 586.75,320.25 31.875,0 0,95.625 -31.875,0 0,-95.625 z"
       style="fill:#bbe0e3;fill-opacity:1;fill-rule:evenodd;stroke:none"
       id="path5814"
       inkscape:connector-curvature="0" /><path
       d="m 586.75,320.25 31.875,0 0,95.625 -31.875,0 0,-95.625 z"
       style="fill:none;stroke:#000000;stroke-width:1.5;stroke-linecap:butt;stroke-linejoin:miter;stroke-miterlimit:8;stroke-dasharray:none;stroke-opacity:1"
       id="path5816"
       inkscape:connector-curvature="0" /><g
       id="g5818"><path
         d="m 359.13,415.87 0,-95.62"
         style="fill:none;stroke:#000000;stroke-width:2.25;stroke-linecap:butt;stroke-linejoin:round;stroke-miterlimit:8;stroke-dasharray:2.25, 2.25;stroke-dashoffset:0;stroke-opacity:1"
         id="path5820"
         inkscape:connector-curvature="0" /></g><path
       d="m 138.25,401.88 216.75,0 0,-1.5 -216.75,0 0,1.5 z m 1,-3.75 -6,3 6,3 0,-6 z m 214.75,6 6,-3 -6,-3 0,6 z"
       style="fill:#000000;fill-opacity:1;fill-rule:nonzero;stroke:none"
       id="path5822"
       inkscape:connector-curvature="0" /><path
       d="m 365,401.88 216.75,0 0,-1.5 -216.75,0 0,1.5 z m 1,-3.75 -6,3 6,3 0,-6 z m 214.75,6 6,-3 -6,-3 0,6 z"
       style="fill:#000000;fill-opacity:1;fill-rule:nonzero;stroke:none"
       id="path5824"
       inkscape:connector-curvature="0" /><text
       transform="matrix(1,0,0,-1,466.1,415.97)"
       style="font-style:italic;font-variant:normal;font-weight:bold;font-size:18px;font-family:Arial;-inkscape-font-specification:'Arial, BoldItalic';writing-mode:lr-tb;fill:#000000;fill-opacity:1;fill-rule:nonzero;stroke:none"
       id="text5826"><tspan
         x="0"
         y="0"
         id="tspan5828">L</tspan></text>
<text
       transform="matrix(1,0,0,-1,239.33,415.97)"
       style="font-style:italic;font-variant:normal;font-weight:bold;font-size:18px;font-family:Arial;-inkscape-font-specification:'Arial, BoldItalic';writing-mode:lr-tb;fill:#000000;fill-opacity:1;fill-rule:nonzero;stroke:none"
       id="text5830"><tspan
         x="0"
         y="0"
         id="tspan5832">L</tspan></text>
<path
       d="m 342.25,323.75 70.69,0 0,6.38 -11.62,0 17.12,10.74 17.11,-10.74 -11.61,0 0,-6.38 70.69,0 0,-27.37 -152.38,0 0,27.37 z"
       style="fill:#ffffff;fill-opacity:1;fill-rule:evenodd;stroke:none"
       id="path5834"
       inkscape:connector-curvature="0" /><path
       d="m 342.25,323.75 70.69,0 0,6.38 -11.62,0 17.12,10.74 17.11,-10.74 -11.61,0 0,-6.38 70.69,0 0,-27.37 -152.38,0 0,27.37 z"
       style="fill:none;stroke:#000000;stroke-width:2;stroke-linecap:butt;stroke-linejoin:miter;stroke-miterlimit:8;stroke-dasharray:none;stroke-opacity:1"
       id="path5836"
       inkscape:connector-curvature="0" /><text
       transform="matrix(1,0,0,-1,353.86,303.29)"
       style="font-variant:normal;font-weight:bold;font-size:18px;font-family:Arial;-inkscape-font-specification:'Arial Bold';writing-mode:lr-tb;fill:#000000;fill-opacity:1;fill-rule:nonzero;stroke:none"
       id="text5838"><tspan
         x="0 11.034 21.042 27.954 33.948002 43.956001 53.874001 58.877998 69.93 80.928001 90.935997 95.940002 101.934 106.992 117.99"
         y="0"
         sodipodi:role="line"
         id="tspan5840">Vertex position</tspan></text>
<path
       d="m 427.51,369.99 204.21,-38.09 -0.27,-1.47 -204.21,38.08 0.27,1.48 z m 203.64,-35.69 5.35,-4.05 -6.45,-1.85 1.1,5.9 z"
       style="fill:#ff0000;fill-opacity:1;fill-rule:nonzero;stroke:none"
       id="path5842"
       inkscape:connector-curvature="0" /><path
       d="M 398.94,368.5 84.927,392.87 85.043,394.36 399.06,370 398.94,368.5 Z M 85.75,390.54 80,394 l 6.214,2.53 -0.464,-5.99 z"
       style="fill:#ff0000;fill-opacity:1;fill-rule:nonzero;stroke:none"
       id="path5844"
       inkscape:connector-curvature="0" /><text
       transform="matrix(1,0,0,-1,593.18,293.06)"
       style="font-style:italic;font-variant:normal;font-weight:bold;font-size:24px;font-family:Arial;-inkscape-font-specification:'Arial, BoldItalic';writing-mode:lr-tb;fill:#000000;fill-opacity:1;fill-rule:nonzero;stroke:none"
       id="text5846"><tspan
         x="0"
         y="0"
         id="tspan5848">T</tspan></text>
<text
       transform="matrix(1,0,0,-1,607.82,287.18)"
       style="font-style:italic;font-variant:normal;font-weight:bold;font-size:15.96000004px;font-family:Arial;-inkscape-font-specification:'Arial, BoldItalic';writing-mode:lr-tb;fill:#000000;fill-opacity:1;fill-rule:nonzero;stroke:none"
       id="text5850"><tspan
         x="0"
         y="0"
         id="tspan5852">N</tspan></text>
<text
       transform="matrix(1,0,0,-1,108.1,292.56)"
       style="font-style:italic;font-variant:normal;font-weight:bold;font-size:24px;font-family:Arial;-inkscape-font-specification:'Arial, BoldItalic';writing-mode:lr-tb;fill:#000000;fill-opacity:1;fill-rule:nonzero;stroke:none"
       id="text5854"><tspan
         x="0"
         y="0"
         id="tspan5856">T</tspan></text>
<text
       transform="matrix(1,0,0,-1,122.74,286.68)"
       style="font-style:italic;font-variant:normal;font-weight:bold;font-size:15.96000004px;font-family:Arial;-inkscape-font-specification:'Arial, BoldItalic';writing-mode:lr-tb;fill:#000000;fill-opacity:1;fill-rule:nonzero;stroke:none"
       id="text5858"><tspan
         x="0"
         y="0"
         id="tspan5860">S</tspan></text>
<path
       d="M 413.2,368.5 85.049,337.1 84.906,338.6 413.05,370 413.2,368.5 Z M 86.258,334.96 80,337.38 l 5.687,3.55 0.571,-5.97 z"
       style="fill:#ff0000;fill-opacity:1;fill-rule:nonzero;stroke:none"
       id="path5862"
       inkscape:connector-curvature="0" /><path
       d="m 420.17,370 214.78,24.19 0.17,-1.49 -214.79,-24.2 -0.16,1.5 z m 213.53,26.31 6.3,-2.31 -5.63,-3.65 -0.67,5.96 z"
       style="fill:#ff0000;fill-opacity:1;fill-rule:nonzero;stroke:none"
       id="path5864"
       inkscape:connector-curvature="0" /><path
       d="m 399,369.19 c 0,9.77 7.92,17.68 17.69,17.68 0,0 0,0 0,0 l 0,0 c 9.77,0 17.69,-7.91 17.69,-17.68 0,0 0,0 0,0 l 0,0 c 0,-9.77 -7.92,-17.69 -17.69,-17.69 0,0 0,0 0,0 l 0,0 c -9.77,0 -17.69,7.92 -17.69,17.69 0,0 0,0 0,0 z"
       style="fill:#ffff00;fill-opacity:1;fill-rule:evenodd;stroke:none"
       id="path5866"
       inkscape:connector-curvature="0" /><path
       d="m 399,369.19 c 0,9.77 7.92,17.68 17.69,17.68 0,0 0,0 0,0 l 0,0 c 9.77,0 17.69,-7.91 17.69,-17.68 0,0 0,0 0,0 l 0,0 c 0,-9.77 -7.92,-17.69 -17.69,-17.69 0,0 0,0 0,0 l 0,0 c -9.77,0 -17.69,7.92 -17.69,17.69 0,0 0,0 0,0 z"
       style="fill:none;stroke:#000000;stroke-width:1.5;stroke-linecap:butt;stroke-linejoin:round;stroke-miterlimit:8;stroke-dasharray:none;stroke-opacity:1"
       id="path5868"
       inkscape:connector-curvature="0" /><path
       d="m 682.45,354.25 -629.387,42.29 0.101,1.5 629.386,-42.29 -0.1,-1.5 z m -628.54,39.98 -5.785,3.4 6.188,2.59 -0.403,-5.99 z"
       style="fill:#ff0000;fill-opacity:1;fill-rule:nonzero;stroke:none"
       id="path5882"
       inkscape:connector-curvature="0" /></g></svg>